# xmcd CD database file
#
# Track frame offsets:
#	225
#	13715
#	28654
#	40906
#	52975
#	67196
#	79390
#	90709
#	102582
#	115770
#	127110
#	138048
#	149329
#	161848
#	175062
#	188202
#	200284
#	213058
#
# Disc length: 3009 seconds
#
# Revision: 3
# Processed by: cddbd v1.5.2PL0 Copyright (c) Steve Scherf et al.
# Submitted via: CDex 1.51
#
DISCID=020bbe12
DTITLE=Sidney Bechet et Claude Luter - Jazz In Paris
DYEAR=1900
DGENRE=Jazz
TTITLE0=Honeysuckle Rose
TTITLE1=High Society
TTITLE2=On The Sunny Side Of The Street
TTITLE3=I Can´t Believe That You´re In Love With Me
TTITLE4=Wrap Your Troubles In Dreams
TTITLE5=It Had To Be You
TTITLE6=Baby Won´t You Please Come Home
TTITLE7=Please Don´t Talk About Me When I´m Gone
TTITLE8=Ooh! Boogie!
TTITLE9=After You´ve Gone
TTITLE10=I´m Going Way Down Home
TTITLE11=Margie
TTITLE12=Gate Mouth
TTITLE13=South African Blues
TTITLE14=Snake Rag
TTITLE15=Weary Way Blues
TTITLE16=Sweet Lovin´ Man
TTITLE17=Panama
EXTD=
EXTT0=
EXTT1=
EXTT2=
EXTT3=
EXTT4=
EXTT5=
EXTT6=
EXTT7=
EXTT8=
EXTT9=
EXTT10=
EXTT11=
EXTT12=
EXTT13=
EXTT14=
EXTT15=
EXTT16=
EXTT17=
PLAYORDER=
